<svg width="16" height="17" viewBox="0 0 16 17" fill="none" xmlns="http://www.w3.org/2000/svg">
<g id="Icons/Icons Collection (Phosphor Icons)">
<path id="Vector" d="M2.64586 11.1463L7.64586 6.14625C7.69229 6.09976 7.74744 6.06288 7.80814 6.03772C7.86883 6.01256 7.9339 5.99961 7.99961 5.99961C8.06531 5.99961 8.13038 6.01256 8.19108 6.03772C8.25177 6.06288 8.30692 6.09976 8.35336 6.14625L13.3534 11.1462C13.4234 11.2162 13.471 11.3053 13.4904 11.4023C13.5097 11.4994 13.4998 11.6 13.4619 11.6914C13.424 11.7828 13.3599 11.8609 13.2776 11.9159C13.1953 11.9708 13.0986 12.0001 12.9996 12L2.99961 12C2.90066 12.0001 2.80391 11.9708 2.72161 11.9159C2.63932 11.8609 2.57517 11.7828 2.5373 11.6914C2.49942 11.6 2.48952 11.4994 2.50884 11.4023C2.52817 11.3053 2.57585 11.2162 2.64586 11.1463Z" fill="#201F24"/>
</g>
</svg>
