<svg width="20" height="21" viewBox="0 0 20 21" fill="none" xmlns="http://www.w3.org/2000/svg">
<g id="Icons/Icons Collection (Phosphor Icons)">
<path id="Vector" d="M17.7976 5.71563L17.7914 5.72266L12.5 11.3727V15.7078C12.5003 15.914 12.4496 16.117 12.3524 16.2989C12.2552 16.4807 12.1145 16.6357 11.9429 16.75L9.44295 18.4172C9.25455 18.5427 9.03561 18.6147 8.8095 18.6254C8.5834 18.6362 8.3586 18.5854 8.15912 18.4784C7.95964 18.3714 7.79296 18.2122 7.67687 18.0179C7.56078 17.8236 7.49964 17.6014 7.49998 17.375L7.49998 11.3727L2.20857 5.72266L2.20232 5.71563C2.03963 5.53657 1.93238 5.31416 1.8936 5.07536C1.85483 4.83656 1.88618 4.59163 1.98386 4.3703C2.08154 4.14897 2.24135 3.96074 2.4439 3.82844C2.64646 3.69615 2.88305 3.62548 3.12498 3.625L16.875 3.625C17.1171 3.62502 17.354 3.69537 17.5569 3.82749C17.7598 3.9596 17.92 4.14781 18.018 4.36923C18.1159 4.59065 18.1475 4.83576 18.1088 5.07478C18.0701 5.31379 17.9628 5.53643 17.8 5.71563H17.7976Z" fill="#201F24"/>
</g>
</svg>
